<?xml version="1.0" encoding="UTF-8"?>
<!DOCTYPE svg PUBLIC "-//W3C//DTD SVG 1.1//EN" "http://www.w3.org/Graphics/SVG/1.1/DTD/svg11.dtd">
<!-- Creator: CorelDRAW -->
<svg xmlns="http://www.w3.org/2000/svg" xml:space="preserve" width="297mm" height="210mm" version="1.1" style="shape-rendering:geometricPrecision; text-rendering:geometricPrecision; image-rendering:optimizeQuality; fill-rule:evenodd; clip-rule:evenodd"
viewBox="0 0 29700 21000"
 xmlns:xlink="http://www.w3.org/1999/xlink"
 xmlns:xodm="http://www.corel.com/coreldraw/odm/2003">
 <defs>
  <style type="text/css">
   <![CDATA[
    .fil0 {fill:#ffffff;fill-rule:nonzero}
   ]]>
  </style>
 </defs>
 <g id="Слой_x0020_1">
  <metadata id="CorelCorpID_0Corel-Layer"/>
  <path class="fil0" d="M12094.49 6605.64l-1284.68 513.87 328.31 -628.05 0 7793.7 -328.31 -471.04 1284.68 428.23 0 1227.57 -4182.34 0 0 -1227.57 1341.78 -442.52 -399.68 485.33 0 -6294.93 385.41 14.3 -2298.14 4853.2 -1541.62 71.38 -2198.23 -4938.88 356.85 0 0 6294.93 -256.93 -442.5 1213.32 399.69 0 1227.57 -3896.86 0 0 -1227.57 1284.68 -428.23 -328.31 471.04 0 -7793.7 328.31 613.78 -1284.68 -428.22 0 -1227.57 3996.78 -71.38 1984.11 5067.33 -285.48 0 2112.56 -4995.95 3668.47 -71.38 0 1227.57zm2298.15 8864.28l0 -1227.57 1541.61 -442.52 -428.23 613.81 0 -7636.71 485.31 371.15 -2126.83 0 542.41 -471.06 -413.96 1798.54 -1470.24 0 0 -3097.49 8436.06 0 0 3097.49 -1456 0 -399.65 -1698.63 528.14 371.15 -2141.13 0 499.6 -371.15 0 7636.71 -413.96 -613.81 1513.08 442.52 0 1227.57 -4696.21 0zm6994.35 0l0 -1227.57 1199.03 -413.96 -242.66 342.58 0 -7551.06 342.58 485.33 -1298.95 -428.22 0 -1227.57 3383 -71.38 3925.4 0 14.27 3154.6 -1455.97 0 -399.68 -1627.26 542.41 242.67 -2940.47 0 371.12 -371.15 0 7394.04 -285.48 -342.58 1455.97 413.96 0 1227.57 -4610.57 0z"/>
 </g>
</svg>
